<svg version="1.1" id="Layer_1" xmlns="http://www.w3.org/2000/svg" xmlns:xlink="http://www.w3.org/1999/xlink" x="0px" y="0px"
	 width="100%" viewBox="0 0 1200 1200" enable-background="new 0 0 1200 1200" xml:space="preserve">
<path fill="#D2E6F5" opacity="1.000000" stroke="none" 
	d="
M792.000000,1201.000000 
	C529.500000,1201.000000 267.500000,1200.990723 5.500037,1201.093384 
	C1.750840,1201.094849 0.906084,1200.249023 0.907021,1196.500000 
	C1.006199,799.500000 1.006199,402.500000 0.907021,5.500023 
	C0.906084,1.750933 1.750933,0.906086 5.500023,0.907022 
	C402.500000,1.006185 799.500000,1.006186 1196.500000,0.907022 
	C1200.249023,0.906086 1201.093994,1.750932 1201.093140,5.500023 
	C1200.993896,402.500000 1200.993896,799.500000 1201.093140,1196.500000 
	C1201.093994,1200.249023 1200.249390,1201.097412 1196.499878,1201.094360 
	C1061.833374,1200.981934 927.166687,1201.000000 792.000000,1201.000000 
z"/>
<path fill="#181818" opacity="1.000000" stroke="none" 
	d="
M498.216858,230.759460 
	C520.512512,236.561935 534.100647,250.909897 539.455383,272.391479 
	C544.796265,293.817383 539.089355,312.594055 522.332458,327.459076 
	C520.144531,329.399994 520.410156,330.568115 521.778931,332.721649 
	C534.895569,353.358673 547.949341,374.036346 560.878601,394.791138 
	C562.465820,397.338959 563.556946,397.301361 565.817688,395.714142 
	C577.359863,387.610413 590.198792,382.935150 604.287964,381.929169 
	C606.582703,381.765320 607.514160,381.114197 607.507751,378.711639 
	C607.447510,356.212921 607.398682,333.713470 607.551575,311.215637 
	C607.575378,307.711700 605.104004,307.856720 603.124512,307.019501 
	C595.547424,303.814819 590.633240,295.981018 591.167542,287.930634 
	C591.765625,278.920074 597.229797,272.116516 605.742126,269.783234 
	C614.064392,267.502014 622.526611,270.561676 627.229309,277.552216 
	C634.456116,288.294861 629.978271,302.784119 617.796875,307.175964 
	C614.878845,308.228027 614.097900,309.522278 614.113220,312.439209 
	C614.227173,334.104187 614.223328,355.770264 614.119385,377.435333 
	C614.104980,380.442017 614.622803,381.811401 618.092712,382.036835 
	C632.378723,382.964874 645.294800,387.972321 656.863159,396.324554 
	C659.130493,397.961578 660.565308,398.155151 662.869934,396.369232 
	C670.370117,390.557068 677.969177,384.854340 685.773560,379.461792 
	C688.871704,377.321106 688.817810,376.042847 686.735046,373.019653 
	C670.242981,349.080658 675.662231,315.963562 698.885376,297.330322 
	C720.795227,279.750793 753.889771,281.949127 773.448486,302.283203 
	C789.535767,319.008179 794.157410,344.857300 784.711243,365.275848 
	C774.873413,386.540924 753.085449,399.465851 729.238953,397.780426 
	C716.973755,396.913513 705.881042,392.662231 696.710938,384.214722 
	C694.706238,382.368073 693.371460,381.776520 690.907593,383.700317 
	C683.431580,389.537567 675.752930,395.119812 668.057129,400.668121 
	C665.812988,402.286072 665.477234,403.045044 667.654175,405.422943 
	C689.087463,428.834747 695.405518,455.869019 686.083069,486.295044 
	C685.075134,489.584656 685.638428,490.749512 688.702271,492.054047 
	C704.447388,498.757874 720.114685,505.647491 735.737915,512.631531 
	C738.453552,513.845520 739.721069,513.575256 741.600464,511.008606 
	C749.965454,499.584564 765.244934,497.412292 776.610657,505.675049 
	C787.006531,513.232788 789.340149,529.055908 781.694214,540.143677 
	C774.588196,550.448303 758.945679,553.476746 748.303589,546.393433 
	C740.361938,541.107544 736.273438,533.575439 736.925537,523.944214 
	C737.119568,521.078064 736.252014,519.949402 733.713013,518.863403 
	C717.677856,512.004333 701.689331,505.031830 685.784790,497.875763 
	C682.816345,496.540161 681.648499,497.046326 680.080872,499.827026 
	C670.562012,516.711487 656.617554,528.580627 638.429199,535.285767 
	C635.479187,536.373291 634.689331,537.447021 635.462891,540.625977 
	C638.096191,551.448181 640.637634,562.310913 642.614807,573.266357 
	C643.496704,578.152893 644.873596,580.398682 650.424316,580.768494 
	C658.986328,581.338806 664.528870,587.120483 666.559082,595.482849 
	C668.398376,603.058838 665.499695,611.705994 659.222656,615.880859 
	C652.182861,620.562927 644.665405,621.450928 637.122620,616.981262 
	C625.770752,610.254517 624.332825,593.485718 634.567627,585.034668 
	C637.166809,582.888489 637.772034,581.172302 637.018799,577.994141 
	C634.181396,566.022827 631.544861,553.999695 629.110535,541.939941 
	C628.509460,538.962585 627.256836,538.667542 624.685852,539.064819 
	C595.032471,543.646545 570.258789,534.543762 550.378845,512.171875 
	C548.580444,510.148071 547.545288,510.385651 545.616150,511.774078 
	C532.106873,521.497009 518.561829,531.172241 504.910004,540.693237 
	C502.427765,542.424438 502.271484,543.476440 503.930298,546.061890 
	C514.646729,562.764893 514.265503,583.388245 502.614716,599.518433 
	C490.500946,616.289551 473.614594,623.010864 453.628937,618.658997 
	C433.703125,614.320190 421.075043,601.127563 416.496857,581.146484 
	C412.013763,561.580383 421.434052,541.334351 439.154297,530.835876 
	C457.089691,520.209900 479.075836,521.853760 494.517700,535.213867 
	C496.760986,537.154724 498.136658,537.595337 500.676727,535.748230 
	C514.003479,526.057129 527.424316,516.492432 540.933167,507.056732 
	C543.558411,505.223083 544.360718,504.049957 542.475769,500.892975 
	C533.965576,486.639648 530.317505,471.107208 531.955139,454.551880 
	C532.365417,450.403839 531.325562,448.872955 527.198547,447.979645 
	C506.237823,443.442688 485.325287,438.671844 464.465729,433.690399 
	C461.284241,432.930603 459.878052,433.516632 458.043243,436.097900 
	C451.152130,445.792542 437.613190,447.058807 428.600555,439.135376 
	C420.392517,431.919373 420.257599,417.872437 428.321808,410.117065 
	C436.407867,402.340698 450.555115,403.309143 457.709656,412.147736 
	C460.307831,415.357422 461.677795,419.114807 461.771149,423.181824 
	C461.827087,425.619537 462.544159,426.558228 465.027466,427.114441 
	C486.606354,431.948029 508.159393,436.900513 529.677917,441.996002 
	C532.809204,442.737457 533.959290,441.968689 534.768127,438.949768 
	C538.336914,425.628754 545.331909,414.230804 555.104553,404.588470 
	C557.242249,402.479248 557.165527,401.101288 555.646912,398.717529 
	C542.598022,378.234619 529.628906,357.700012 516.799255,337.079224 
	C515.009033,334.201843 513.750000,333.926697 510.673737,335.458832 
	C489.320374,346.093842 468.799316,343.692139 450.295624,329.276093 
	C431.933990,314.970703 425.207886,295.397583 430.482239,272.823425 
	C435.853271,249.835770 451.132080,235.783890 474.040558,230.344055 
	C481.882416,228.481918 489.909393,228.715103 498.216858,230.759460 
z"/>
<path fill="#181919" opacity="1.000000" stroke="none" 
	d="
M145.028625,743.858215 
	C138.479584,726.853760 143.913086,710.188110 158.073715,703.727905 
	C167.350586,699.495605 176.467712,699.971680 185.128983,705.651123 
	C187.498566,707.204895 188.941193,708.802673 185.969131,711.248047 
	C184.699371,712.292786 183.611954,713.618958 182.653534,714.967773 
	C181.335938,716.822021 180.250977,716.760803 178.187241,715.706482 
	C168.319992,710.665955 159.233170,715.614868 157.696686,726.531128 
	C157.245880,729.734070 157.509018,732.876404 158.180771,735.952148 
	C159.504272,742.012268 163.990265,745.670410 170.171707,746.066650 
	C175.902557,746.434021 177.705215,744.123718 176.236801,738.580200 
	C175.541214,735.954224 173.536652,737.030640 172.197693,737.117920 
	C169.114182,737.319031 167.862137,736.593811 167.935852,733.107544 
	C168.107376,724.995972 167.898804,724.957214 175.987228,725.005554 
	C180.296738,725.031250 185.996735,723.576843 188.532104,725.750122 
	C191.189514,728.027954 189.171890,733.904907 189.336609,738.204468 
	C189.438492,740.864014 188.988312,743.593506 189.431274,746.181091 
	C190.378006,751.711548 187.586639,754.247437 182.947266,756.297729 
	C168.425018,762.715515 152.508224,757.745972 145.028625,743.858215 
z"/>
<path fill="#181919" opacity="1.000000" stroke="none" 
	d="
M513.395325,734.234436 
	C513.414856,739.178406 512.975891,743.595642 511.084442,747.802490 
	C506.304840,758.433044 497.433746,761.378174 486.545380,755.832397 
	C486.545380,760.569214 486.570099,765.289368 486.528656,770.008850 
	C486.517822,771.244324 486.960266,772.933044 484.882538,772.969849 
	C481.053650,773.037659 477.222717,772.987854 473.392639,772.991699 
	C471.583801,772.993530 471.821838,771.644653 471.820923,770.536255 
	C471.806610,752.883911 471.804016,735.231628 471.825958,717.579285 
	C471.827271,716.515686 471.447815,715.046753 473.274750,715.026184 
	C476.437683,714.990601 479.605896,714.938049 482.763367,715.081177 
	C484.772217,715.172363 483.727203,717.777039 485.390289,718.481018 
	C486.098053,718.040039 486.925232,717.515015 487.761566,717.005005 
	C497.686676,710.951782 507.952606,714.563965 511.876617,725.480896 
	C512.844849,728.174377 513.208496,730.969849 513.395325,734.234436 
z"/>
<path fill="#181818" opacity="1.000000" stroke="none" 
	d="
M595.912231,749.136230 
	C595.487976,747.204651 595.109497,745.780945 593.031738,745.987976 
	C591.879456,746.102783 590.706116,746.006653 589.542297,746.006226 
	C580.000916,746.002869 579.975891,745.995911 577.433228,755.071960 
	C576.977295,756.699280 576.874573,758.187805 574.455688,758.062317 
	C570.355286,757.849609 566.235901,758.003845 561.623718,758.003845 
	C567.184875,739.719238 572.614502,721.984314 577.930359,704.215332 
	C578.486328,702.356934 579.457458,701.845459 581.148804,701.990601 
	C581.478882,702.018982 581.813538,701.989624 582.145996,701.994568 
	C586.791931,702.063110 592.329102,700.596985 595.834961,702.631226 
	C599.389404,704.693726 599.163269,710.836670 600.531677,715.199768 
	C604.600098,728.172180 608.463623,741.208862 612.390930,754.225342 
	C612.719543,755.314514 612.925415,756.440796 613.296082,758.004517 
	C608.697693,758.004517 604.410278,757.930481 600.127625,758.041382 
	C598.449341,758.084778 597.717346,757.363342 597.395630,755.877563 
	C596.939209,753.769653 596.452637,751.668274 595.912231,749.136230 
z"/>
<path fill="#181919" opacity="1.000000" stroke="none" 
	d="
M350.673523,717.956848 
	C350.673492,721.768982 350.673492,725.089783 350.673492,729.881104 
	C354.150513,725.524536 357.092743,722.318176 359.455261,718.730103 
	C361.437317,715.719849 363.751465,714.603333 367.283356,714.924500 
	C370.695221,715.234619 374.157379,714.991577 378.607330,714.991577 
	C374.042023,720.464294 370.173218,725.351501 366.014923,729.978577 
	C364.022827,732.195251 363.761322,733.781189 365.543243,736.375122 
	C370.222626,743.186829 374.523956,750.258179 379.472137,758.002747 
	C374.208069,758.002747 369.659668,757.929260 365.115814,758.039917 
	C363.376495,758.082336 362.871094,756.915955 362.233276,755.789124 
	C360.352203,752.465698 358.363495,749.192383 356.687225,745.767151 
	C355.185730,742.698914 354.121826,743.496582 352.263184,745.537720 
	C349.851807,748.185852 350.694733,751.215210 350.759583,754.077087 
	C350.826019,757.010132 350.169891,758.082947 346.941467,758.100037 
	C335.988922,758.157776 335.989746,758.306213 335.989746,747.433228 
	C335.989746,732.292297 336.089142,717.150269 335.911072,702.011414 
	C335.872620,698.739319 336.769226,697.881958 340.020813,697.907104 
	C350.672424,697.989746 350.673553,697.849304 350.673553,708.480896 
	C350.673553,711.475769 350.673523,714.470703 350.673523,717.956848 
z"/>
<path fill="#191919" opacity="1.000000" stroke="none" 
	d="
M760.788940,721.147217 
	C765.004272,722.856934 768.864319,724.373291 772.686340,725.980042 
	C779.040222,728.651428 783.004089,733.078857 783.133667,740.325806 
	C783.266724,747.770447 779.903015,753.232788 773.287292,756.268494 
	C762.520081,761.209412 752.265259,759.452087 742.619324,752.944458 
	C740.721924,751.664307 740.226990,750.342346 742.070190,748.595886 
	C742.788269,747.915405 743.458740,747.127075 743.947266,746.271606 
	C746.160645,742.395691 748.666260,741.075317 752.862549,744.038696 
	C755.888062,746.175354 759.720581,746.372314 763.448120,746.062073 
	C765.587097,745.884033 767.465881,745.239258 767.910950,742.876343 
	C768.336548,740.617126 766.655640,739.591553 764.939148,738.832153 
	C761.147827,737.154785 757.290833,735.625488 753.505066,733.936218 
	C745.923462,730.553223 741.884399,724.696594 742.310669,717.848572 
	C742.776550,710.364258 748.138794,704.180725 756.081848,702.012756 
	C764.105286,699.822815 771.509644,701.362671 778.511475,705.651855 
	C780.940979,707.140015 782.055237,708.574158 779.481262,710.914612 
	C778.628784,711.689697 777.842407,712.614990 777.276550,713.613647 
	C775.402466,716.921082 773.275940,717.936951 769.779968,715.480896 
	C767.613953,713.959167 764.816223,713.699097 762.085754,713.907166 
	C760.160400,714.053711 758.369324,714.481201 757.647400,716.487610 
	C756.733704,719.026917 758.590515,720.042542 760.788940,721.147217 
z"/>
<path fill="#171717" opacity="1.000000" stroke="none" 
	d="
M703.032593,738.011475 
	C708.135559,730.236572 713.064148,722.778503 718.318054,714.828125 
	C712.527344,713.865723 707.276550,714.316895 702.080078,714.410034 
	C698.902161,714.466919 697.836060,713.689026 697.901001,710.313477 
	C698.060791,701.999695 697.869263,701.996033 706.223389,701.996033 
	C714.218323,701.996033 722.215149,701.902039 730.207031,702.057373 
	C732.397888,702.099976 735.869263,700.705017 736.557373,702.978943 
	C737.445801,705.914429 737.808533,709.551025 735.776672,712.620056 
	C731.461426,719.138184 727.164734,725.668640 722.860168,732.193848 
	C720.137146,736.321655 717.413757,740.449158 713.953491,745.693970 
	C720.870544,745.693970 726.730774,745.873047 732.572754,745.624084 
	C735.859314,745.483948 737.223206,746.115906 737.117737,749.851318 
	C736.887573,757.997559 737.115051,758.003967 729.120728,758.003967 
	C720.292969,758.003967 711.464050,758.080994 702.638245,757.950012 
	C700.420288,757.917114 696.830566,759.188354 696.230774,757.153748 
	C695.315918,754.049805 694.876099,750.263000 697.049316,747.052795 
	C699.007751,744.159668 700.923584,741.237671 703.032593,738.011475 
z"/>
<path fill="#181818" opacity="1.000000" stroke="none" 
	d="
M300.374390,717.471802 
	C300.397278,725.428040 300.324310,732.926880 300.481232,740.420898 
	C300.540649,743.258362 300.792206,746.453247 304.918976,746.249634 
	C308.806549,746.057800 311.017365,744.117737 310.971710,739.939392 
	C310.895294,732.942810 311.061523,725.942078 310.896484,718.948547 
	C310.830688,716.160217 311.191376,714.894104 314.562073,714.889893 
	C325.815216,714.875732 325.815063,714.707153 325.815002,725.890747 
	C325.814941,735.387268 325.718689,744.885437 325.874268,754.379395 
	C325.919800,757.159363 325.204529,758.419434 322.283661,758.036377 
	C320.973358,757.864502 319.594727,757.835327 318.294067,758.039856 
	C314.500214,758.636780 312.589935,757.194519 312.889191,753.226074 
	C310.488251,752.936707 309.752106,755.059021 308.360016,756.035645 
	C298.575378,762.900085 286.864227,757.865417 286.074310,745.977356 
	C285.445831,736.519348 285.788269,726.996338 285.721161,717.502075 
	C285.713226,716.380554 285.509338,715.015930 287.288361,715.018127 
	C291.283508,715.022949 295.279755,715.016785 299.272919,715.118835 
	C300.372040,715.146851 300.293304,716.206726 300.374390,717.471802 
z"/>
<path fill="#191919" opacity="1.000000" stroke="none" 
	d="
M435.967529,732.949402 
	C435.977692,735.937988 435.969452,738.435974 436.002716,740.933350 
	C436.042206,743.896362 436.862976,746.380249 440.434082,746.263367 
	C443.803040,746.153137 446.270630,744.624207 446.317261,740.876038 
	C446.406342,733.716797 446.522644,726.549622 446.273712,719.398071 
	C446.155151,715.992249 447.008240,714.850464 450.617065,714.895813 
	C461.146881,715.028076 461.149048,714.855957 461.149017,725.523682 
	C461.149017,735.015259 460.999542,744.510437 461.229950,753.996460 
	C461.310577,757.315857 460.300720,758.528259 457.080688,758.028137 
	C456.267670,757.901917 455.418427,758.009583 454.585815,758.009216 
	C449.473511,758.007141 449.473511,758.007080 447.846771,752.964417 
	C444.923584,754.780396 442.574097,757.344299 439.164124,758.315308 
	C430.571533,760.762207 423.569855,756.957092 421.937744,748.198792 
	C420.002899,737.815979 420.371887,727.143250 421.595306,716.868347 
	C422.111908,712.529602 429.309418,715.922852 433.367340,715.024719 
	C435.724426,714.503052 436.031586,716.028748 435.995880,717.971863 
	C435.907196,722.799255 435.967224,727.629456 435.967529,732.949402 
z"/>
<path fill="#191919" opacity="1.000000" stroke="none" 
	d="
M231.277069,758.009277 
	C226.504974,759.124146 226.992767,755.242188 225.758911,752.768433 
	C222.920364,755.067444 220.385117,757.434570 216.908173,758.390930 
	C208.537094,760.693665 201.603531,756.887634 199.973419,748.419495 
	C197.974930,738.037781 199.477478,727.487061 199.072067,717.020081 
	C199.013611,715.511230 199.724274,714.915344 201.157883,714.996155 
	C201.489822,715.014893 201.824768,715.007996 202.157028,714.989502 
	C213.967499,714.331482 213.964996,714.331055 213.968658,726.260864 
	C213.970139,731.091614 213.965179,735.922424 214.001236,740.752991 
	C214.022827,743.645630 214.632385,746.282227 218.258057,746.248474 
	C221.890762,746.214722 224.322342,744.555176 224.337708,740.550903 
	C224.365829,733.221497 224.468857,725.888977 224.290344,718.563904 
	C224.220856,715.711792 225.129013,714.960205 227.951370,714.916443 
	C239.150696,714.742737 239.149063,714.636353 239.149063,725.867188 
	C239.149078,734.029602 239.149094,742.191956 239.149063,750.354370 
	C239.149033,758.009033 239.149002,758.009033 231.277069,758.009277 
z"/>
<path fill="#181919" opacity="1.000000" stroke="none" 
	d="
M557.401123,755.531982 
	C555.472839,758.536133 546.124451,759.202454 545.213928,756.580688 
	C544.079773,753.314819 543.037964,754.784058 541.481445,755.851501 
	C538.986267,757.562805 536.253052,758.722351 533.184387,758.942566 
	C527.072998,759.381165 521.903931,756.034119 520.038513,750.424377 
	C518.008606,744.319763 519.892944,738.463074 525.122986,735.133057 
	C529.113586,732.592041 533.622986,731.537109 538.250854,730.787415 
	C539.630249,730.564026 542.173889,731.302185 541.997620,728.797119 
	C541.853882,726.755005 539.874146,726.081421 537.895386,725.907593 
	C534.651123,725.622620 531.569153,726.215271 528.765503,727.797485 
	C526.582947,729.029114 525.175537,728.883362 524.196106,726.372253 
	C523.597656,724.837646 522.770203,723.365112 521.862061,721.985535 
	C520.813477,720.392456 520.945312,719.452454 522.756836,718.512939 
	C529.252136,715.144226 536.061096,713.197021 543.384521,714.290710 
	C551.527588,715.506653 556.524658,720.969299 557.011108,729.653076 
	C557.484680,738.107544 557.300964,746.598938 557.401123,755.531982 
z"/>
<path fill="#19191A" opacity="1.000000" stroke="none" 
	d="
M675.555420,715.176086 
	C685.860168,720.048767 690.673584,728.036621 689.830627,738.334656 
	C689.011475,748.342773 683.314880,755.605103 674.320984,758.107056 
	C665.724182,760.498596 656.868042,757.556763 651.684631,750.587830 
	C646.112671,743.096497 645.824585,731.239685 651.022522,723.335754 
	C655.731750,716.174561 664.612000,712.676514 673.236084,714.589905 
	C673.884216,714.733765 674.525635,714.908020 675.555420,715.176086 
z"/>
<path fill="#19191A" opacity="1.000000" stroke="none" 
	d="
M811.264771,747.670166 
	C813.551758,747.989502 815.330750,747.714966 817.127747,747.230103 
	C822.214905,745.857300 824.501404,747.312927 826.040466,752.417236 
	C826.494507,753.923157 825.906921,754.413696 824.872009,755.176514 
	C818.495605,759.875732 806.633301,760.244446 799.143127,755.890198 
	C791.846863,751.648926 787.866089,742.446716 789.229980,732.974426 
	C790.571777,723.655396 796.569031,716.767456 805.244690,714.581116 
	C817.793640,711.418701 827.741272,719.712830 828.225159,733.741882 
	C828.475830,741.009460 828.475708,741.009460 821.229675,741.009644 
	C816.565979,741.009766 811.901672,740.966797 807.239197,741.042236 
	C806.168091,741.059509 804.691711,740.373352 804.073853,741.617310 
	C803.364014,743.046448 804.691772,744.068054 805.519104,745.044189 
	C806.888794,746.660400 808.893860,747.084839 811.264771,747.670166 
z"/>
<path fill="#19191A" opacity="1.000000" stroke="none" 
	d="
M997.469238,744.428101 
	C1001.748779,748.571045 1006.566223,748.664856 1011.209229,746.731567 
	C1017.289001,744.199951 1016.636719,749.865356 1018.215759,752.269958 
	C1020.313416,755.464417 1016.484131,755.574524 1014.990295,756.286072 
	C1004.819458,761.130798 993.411316,759.293640 986.966736,752.022705 
	C980.686340,744.937012 979.767212,732.533020 984.891235,724.013733 
	C990.117188,715.325073 1000.889893,711.689941 1010.033447,715.529785 
	C1017.719910,718.757751 1022.795105,729.979553 1020.753113,738.747131 
	C1020.214783,741.058716 1018.860596,741.031921 1017.126221,741.022583 
	C1010.968872,740.989441 1004.808411,741.120361 998.654724,740.967529 
	C995.232605,740.882568 996.086426,742.335938 997.469238,744.428101 
z"/>
<path fill="#181919" opacity="1.000000" stroke="none" 
	d="
M885.518738,758.005005 
	C884.266541,757.931519 883.396240,758.001465 883.061096,756.979919 
	C878.518860,743.134399 873.973328,729.289917 869.395081,715.343140 
	C883.861816,714.001526 883.862366,714.001404 887.069702,727.259216 
	C887.812256,730.328308 888.545105,733.399841 889.289124,736.468567 
	C889.993286,739.372498 890.706238,742.274353 891.414490,745.173889 
	C893.393799,745.248413 892.852478,743.652527 893.088684,742.703796 
	C895.096008,734.640503 897.139648,726.583801 898.956421,718.476807 
	C899.516785,715.976257 900.370544,714.725952 903.181641,714.931458 
	C906.638733,715.184265 910.128418,714.991821 914.014404,714.991821 
	C909.617249,728.860596 905.285400,742.281677 901.162109,755.766541 
	C900.477539,758.005371 899.181335,758.030701 897.456909,758.017090 
	C893.625854,757.987122 889.794312,758.007751 885.518738,758.005005 
z"/>
<path fill="#1A1A1A" opacity="1.000000" stroke="none" 
	d="
M612.783569,724.371765 
	C612.774170,722.115417 612.848145,720.279968 612.753113,718.453308 
	C612.652771,716.525513 613.061523,714.997375 615.361511,715.252319 
	C619.116882,715.668518 619.756409,713.348145 619.886353,710.452026 
	C619.893860,710.285950 619.914368,710.120239 619.932739,709.954834 
	C620.793274,702.195984 623.886414,700.115479 631.452271,702.025330 
	C632.691711,702.338257 633.092163,702.883484 633.091064,704.003479 
	C633.089722,705.335510 633.102295,706.667480 633.103210,707.999512 
	C633.107788,714.739075 633.106506,714.887451 639.716614,714.915405 
	C642.338806,714.926514 643.369446,715.631226 643.025635,718.273804 
	C642.855225,719.583618 642.833374,720.958435 643.027893,722.261414 
	C643.556641,725.803284 642.090759,727.193909 638.643738,726.576233 
	C633.972595,725.739197 632.479858,727.774292 633.043823,732.258362 
	C633.373718,734.881165 633.114990,737.579102 633.105469,740.243164 
	C633.089417,744.723694 634.562195,747.396729 639.785889,747.392700 
	C644.999390,747.388733 642.434692,752.441589 643.775208,755.001770 
	C645.035156,757.408142 642.729065,757.813782 640.843323,758.276917 
	C627.212769,761.624573 618.993591,755.617493 618.334290,741.665771 
	C618.177246,738.342834 618.195129,735.003601 618.310242,731.678040 
	C618.414368,728.668396 618.560852,725.883179 614.159973,726.488525 
	C613.172607,726.624268 612.844055,725.695496 612.783569,724.371765 
z"/>
<path fill="#1A1A1A" opacity="1.000000" stroke="none" 
	d="
M1056.413330,725.913574 
	C1054.799194,728.472351 1053.439819,726.822144 1051.968262,726.306274 
	C1048.724609,725.169006 1044.010864,722.950317 1042.584717,726.601685 
	C1041.133789,730.316589 1046.532104,730.303101 1049.135132,731.551086 
	C1051.526855,732.697937 1054.114258,733.442505 1056.223755,735.142517 
	C1063.538208,741.037292 1062.149292,752.527954 1053.302612,756.661682 
	C1044.639038,760.709778 1036.171265,759.590393 1028.179565,754.338867 
	C1026.213867,753.047119 1026.120850,752.139099 1027.433472,750.082092 
	C1030.016113,746.034363 1032.595093,743.379944 1037.355835,747.083008 
	C1037.729980,747.374023 1038.276245,747.542175 1038.757446,747.580994 
	C1041.585083,747.809143 1045.531860,749.669861 1046.644043,746.102234 
	C1047.649536,742.877319 1043.445312,742.640442 1041.207520,741.601562 
	C1038.648315,740.413391 1035.961182,739.508789 1033.666992,737.792603 
	C1025.832520,731.932129 1026.477539,720.835876 1035.201294,716.394043 
	C1043.311035,712.264709 1051.315796,713.502747 1058.948120,718.134216 
	C1060.536865,719.098328 1060.994263,720.081360 1059.673096,721.634399 
	C1058.597046,722.899231 1057.667969,724.289001 1056.413330,725.913574 
z"/>
<path fill="#19191A" opacity="1.000000" stroke="none" 
	d="
M950.196045,753.853027 
	C942.181274,745.208252 940.768738,733.299438 946.423462,724.236633 
	C951.538330,716.039001 962.892395,711.888550 972.233337,715.078491 
	C974.437378,715.831116 978.108643,716.018860 977.657898,719.473206 
	C977.176819,723.160400 971.744141,726.689270 968.677490,726.148926 
	C964.867859,725.477600 961.758545,726.565857 959.702332,729.990540 
	C957.262939,734.053223 957.642090,740.679688 960.524475,744.161987 
	C963.095642,747.268188 966.512512,747.983887 969.968567,746.385376 
	C976.490479,743.368774 975.801331,749.943420 977.691895,752.353699 
	C980.040833,755.348511 976.064941,756.064331 974.400452,756.788025 
	C965.989868,760.444641 957.908875,759.788025 950.196045,753.853027 
z"/>
<path fill="#1A1A1A" opacity="1.000000" stroke="none" 
	d="
M278.262756,714.179016 
	C282.491791,718.157715 278.311249,721.802551 278.188690,725.577576 
	C278.102203,728.241028 275.615784,726.880127 274.199066,726.950806 
	C268.355957,727.242432 264.665680,730.855469 264.574615,736.784119 
	C264.484985,742.615662 264.454193,748.451965 264.598297,754.281311 
	C264.662903,756.894714 264.161560,758.040710 261.114990,758.098938 
	C249.800308,758.315186 249.802811,758.447266 249.802811,747.261108 
	C249.802795,737.928528 249.976822,728.591064 249.713562,719.265869 
	C249.614105,715.742920 250.618958,714.369568 254.088364,714.984802 
	C254.249939,715.013428 254.421677,714.998291 254.587555,714.986938 
	C259.038300,714.684265 263.769745,713.987915 262.653534,721.837036 
	C267.042999,716.769836 271.374786,713.098816 278.262756,714.179016 
z"/>
<path fill="#19191A" opacity="1.000000" stroke="none" 
	d="
M403.120667,716.985107 
	C404.575043,716.120850 405.678162,715.357666 406.887878,714.846863 
	C409.593994,713.704285 412.663544,713.157654 415.045624,714.840210 
	C417.485962,716.563782 414.847900,719.054138 414.801910,721.234070 
	C414.715302,725.341187 413.192017,727.586487 408.190796,727.229858 
	C403.681183,726.908325 400.115601,731.446594 400.036743,736.219482 
	C399.934937,742.379089 399.896973,748.544739 400.065735,754.701416 
	C400.136139,757.270081 399.412292,758.024048 396.762573,758.084412 
	C385.138245,758.349304 385.140442,758.448242 385.140472,747.002441 
	C385.140472,737.677246 385.289795,728.348389 385.060974,719.028809 
	C384.979095,715.693970 386.012238,714.454834 389.244080,714.979309 
	C389.730835,715.058289 390.241425,714.990601 390.740997,714.990234 
	C397.348785,714.985229 397.348785,714.985229 398.319122,721.901917 
	C399.967896,720.178955 401.392853,718.689819 403.120667,716.985107 
z"/>
<path fill="#181818" opacity="1.000000" stroke="none" 
	d="
M851.856567,739.197693 
	C851.856079,744.828857 852.570740,750.113037 851.677795,755.109863 
	C850.508667,761.651672 844.933228,756.644775 841.546326,757.853271 
	C839.896545,758.441895 836.853027,759.272339 836.920898,755.068848 
	C837.119568,742.763306 837.080078,730.451416 836.924133,718.144592 
	C836.888611,715.338562 837.950195,714.649719 840.388611,714.983032 
	C840.878479,715.050049 841.391479,715.044128 841.883301,714.984680 
	C846.843567,714.385742 850.867615,714.975281 849.606567,723.096741 
	C853.864380,717.190125 857.805542,713.601440 863.986145,714.010559 
	C866.785828,714.195923 868.457031,714.894470 867.219788,718.262512 
	C866.484314,720.264526 866.287476,722.468262 865.888733,724.588867 
	C865.579529,726.233398 864.952271,727.001709 862.964355,727.118958 
	C854.293152,727.630066 851.892578,730.270020 851.856567,739.197693 
z"/>
<path fill="#1B1C1C" opacity="1.000000" stroke="none" 
	d="
M920.438049,725.053467 
	C920.437744,714.973694 920.449524,715.256775 929.966858,714.859924 
	C934.456360,714.672668 935.431946,716.008789 935.311035,720.289612 
	C934.992126,731.577148 935.107422,742.881042 935.268250,754.175354 
	C935.309937,757.110168 934.713379,758.116455 931.499390,758.111633 
	C920.438171,758.095154 920.437866,758.248535 920.437866,746.973999 
	C920.437866,739.830566 920.437988,732.687134 920.438049,725.053467 
z"/>
<path fill="#1B1C1C" opacity="1.000000" stroke="none" 
	d="
M927.163574,709.828003 
	C920.719482,707.760681 918.520203,704.336731 920.269714,699.680420 
	C921.780823,695.658691 927.379517,693.777039 931.656067,695.860962 
	C934.863159,697.423828 936.475403,700.040710 935.838074,703.524170 
	C935.026123,707.961975 931.807678,709.689758 927.163574,709.828003 
z"/>
<path fill="#D1E4F3" opacity="1.000000" stroke="none" 
	d="
M647.841553,398.071899 
	C670.543213,412.586578 682.397644,433.294312 683.637329,459.597626 
	C684.536255,478.669373 677.910034,495.500488 664.896240,509.647095 
	C664.611755,509.956360 664.097595,510.054321 663.080200,510.545593 
	C663.080200,506.038269 663.248108,501.940948 663.049438,497.861450 
	C662.394714,484.414154 651.764038,474.094299 638.375549,474.021515 
	C620.051392,473.921906 601.725647,473.911499 583.401672,474.024841 
	C569.793762,474.109009 559.039307,484.909363 558.838928,498.442841 
	C558.780457,502.392670 558.829956,506.344055 558.829956,510.562805 
	C538.603394,493.521759 529.322693,454.737152 549.574036,422.250946 
	C570.388977,388.860687 612.746643,378.258789 647.841553,398.071899 
z"/>
<path fill="#CFE3F2" opacity="1.000000" stroke="none" 
	d="
M490.999115,293.510742 
	C483.503357,293.510773 476.507355,293.490692 469.511505,293.515137 
	C454.988159,293.565857 448.228943,300.194641 447.832001,314.738068 
	C447.815918,315.327637 447.777771,315.916595 447.735413,316.812225 
	C434.540405,304.889587 428.879730,274.925537 447.287109,253.373352 
	C465.247467,232.344589 497.880249,229.848465 517.453369,247.868225 
	C538.110229,266.885590 540.750427,298.528381 522.856567,317.060822 
	C522.605225,314.340149 522.458801,311.914459 522.144958,309.510651 
	C521.051453,301.136322 514.824219,294.751007 506.457092,293.923492 
	C501.505859,293.433807 496.487274,293.625549 490.999115,293.510742 
z"/>
<path fill="#D0E3F2" opacity="1.000000" stroke="none" 
	d="
M745.963623,349.834412 
	C736.972900,349.834412 728.448242,350.274475 719.985596,349.737091 
	C705.215210,348.799164 695.306091,355.978119 695.852112,372.800323 
	C683.062256,362.263428 677.707092,333.625366 693.931030,311.960449 
	C710.601379,289.699341 742.761719,285.395966 763.943359,302.604279 
	C785.858032,320.408112 789.468262,352.785858 771.763245,372.856873 
	C770.272522,372.506042 770.891296,371.278595 770.864441,370.438629 
	C770.432678,356.916260 763.389343,349.954376 749.956238,349.835876 
	C748.790100,349.825592 747.623840,349.834473 745.963623,349.834412 
z"/>
<path fill="#D0E3F2" opacity="1.000000" stroke="none" 
	d="
M423.645264,561.855408 
	C430.114563,539.763550 449.173004,527.508728 471.049072,531.065979 
	C490.636292,534.250916 505.564178,553.005005 504.995819,573.713501 
	C504.758942,582.344421 501.550385,590.738220 496.111298,596.604736 
	C495.856842,594.991394 495.647888,593.576416 495.409027,592.166443 
	C493.999695,583.847290 488.284760,578.395447 479.755005,578.151001 
	C468.945984,577.841309 458.112885,577.826050 447.305725,578.171204 
	C438.637756,578.448120 433.017151,584.131531 431.796173,592.822083 
	C431.637970,593.947998 431.360291,595.057190 430.949799,597.119446 
	C422.743530,586.067993 420.546021,574.721313 423.645264,561.855408 
z"/>
<path fill="#CFE3F2" opacity="1.000000" stroke="none" 
	d="
M494.878784,746.052368 
	C488.145813,747.721924 486.559448,746.566650 486.536469,740.415100 
	C486.525360,737.436523 486.630249,734.454285 486.515900,731.480103 
	C486.384949,728.073303 488.557495,726.755737 491.307526,726.189575 
	C494.054047,725.624268 496.472931,726.688904 497.223145,729.446777 
	C498.763489,735.109497 499.551849,740.831482 494.878784,746.052368 
z"/>
<path fill="#C1D4E1" opacity="1.000000" stroke="none" 
	d="
M586.311829,734.682983 
	C584.622070,734.288208 582.011169,735.752686 582.700928,732.585571 
	C584.060852,726.340698 585.553650,720.124817 587.698425,713.956604 
	C588.858459,719.021362 589.636536,724.214783 591.285889,729.114868 
	C592.944031,734.041199 591.342346,735.356323 586.311829,734.682983 
z"/>
<path fill="#C1D4E1" opacity="1.000000" stroke="none" 
	d="
M542.768677,743.503601 
	C542.355164,745.470947 541.252991,746.433838 539.851868,747.014343 
	C537.601379,747.946777 535.143982,748.398621 533.821167,745.822021 
	C532.409058,743.071594 534.525146,741.613586 536.661926,740.509949 
	C541.375610,738.075195 542.533997,738.587830 542.768677,743.503601 
z"/>
<path fill="#CCDFEE" opacity="1.000000" stroke="none" 
	d="
M662.317932,736.091187 
	C662.343445,735.344116 662.343567,735.009644 662.391724,734.682312 
	C663.372192,728.016724 665.230408,725.435486 669.065063,726.031067 
	C674.675537,726.902588 674.418274,731.681763 674.732239,735.690430 
	C674.921753,738.109863 674.461304,740.675354 673.803589,743.039124 
	C673.149658,745.389099 671.483032,746.993225 668.734253,747.061096 
	C665.745300,747.134949 664.030762,745.424011 663.261963,742.883850 
	C662.646118,740.849121 662.608887,738.639221 662.317932,736.091187 
z"/>
<path fill="#C7DAE8" opacity="1.000000" stroke="none" 
	d="
M806.945435,725.952271 
	C809.048096,725.077209 810.769958,724.860596 812.551758,725.698669 
	C814.531189,726.629700 815.924805,728.256470 815.504456,730.295044 
	C815.125427,732.133301 813.028320,731.127380 811.692383,731.298279 
	C810.561829,731.442871 809.377563,731.463867 808.253967,731.294678 
	C806.757263,731.069397 804.552856,732.330444 803.905701,730.363831 
	C803.277161,728.453796 805.116333,727.195068 806.945435,725.952271 
z"/>
<path fill="#C7DAE8" opacity="1.000000" stroke="none" 
	d="
M1000.323608,731.336304 
	C998.640381,730.925964 996.611084,732.316833 996.169128,730.267578 
	C995.849792,728.786926 997.202942,727.524719 998.383606,726.622375 
	C1000.012634,725.377380 1001.933228,724.763062 1003.973083,725.321655 
	C1006.191772,725.929260 1008.133728,727.307739 1007.974731,729.732544 
	C1007.785156,732.622986 1005.202881,730.934387 1003.709106,731.294434 
	C1002.772766,731.520142 1001.737732,731.336365 1000.323608,731.336304 
z"/>
<path fill="#171717" opacity="1.000000" stroke="none" 
	d="
M600.949585,462.282776 
	C588.244141,456.588013 581.700500,444.455750 584.225464,431.773041 
	C586.716309,419.261627 597.752869,410.077026 610.417419,409.976166 
	C623.723572,409.870209 634.392151,418.286987 637.449036,431.302185 
	C641.894714,450.230957 624.880859,467.520386 605.633972,463.613098 
	C604.173401,463.316589 602.749146,462.841461 600.949585,462.282776 
z"/>
<path fill="#181818" opacity="1.000000" stroke="none" 
	d="
M480.755249,248.274277 
	C499.906830,245.402954 507.833649,263.122650 502.191742,274.574127 
	C498.346466,282.378937 490.421967,286.539825 481.573669,285.061035 
	C473.472595,283.707123 467.249268,276.828735 466.304596,268.184784 
	C465.432037,260.200897 470.276611,252.286118 477.977722,249.149567 
	C478.744019,248.837448 479.558075,248.642548 480.755249,248.274277 
z"/>
<path fill="#181818" opacity="1.000000" stroke="none" 
	d="
M737.983521,304.736206 
	C748.791260,308.138580 754.398010,317.753296 751.687500,327.671265 
	C748.951965,337.680756 738.840210,343.614594 728.798950,341.102875 
	C718.786011,338.598236 712.834229,328.752716 715.084351,318.416168 
	C717.251709,308.459930 726.500977,302.792206 737.983521,304.736206 
z"/>
<path fill="#181919" opacity="1.000000" stroke="none" 
	d="
M472.170715,569.354980 
	C465.318420,572.900269 458.937408,572.783447 453.227478,567.976379 
	C448.169769,563.718323 446.912903,557.954102 448.391418,551.681152 
	C449.989166,544.902405 455.793488,540.347961 462.812439,540.006287 
	C469.824402,539.665039 475.953094,543.659973 478.393707,550.162964 
	C480.999420,557.105957 478.810883,564.129578 472.170715,569.354980 
z"/>
</svg>